# xmcd
#
# Track frame offsets: 
#        150
#        17170
#        34454
#        57185
#        81217
#        107958
#        128565
#        146151
#        157501
#        178921
#        196975
#
# Disc length: 2819 seconds
#
# Revision: 0
# Processed by: cddbd v1.5.2PL0 Copyright (c) Steve Scherf et al.
# Submitted via: ExactAudioCopy v1.3
#
DISCID=930b010b
DTITLE=Chris Bevington and Friends - Chris Bevington and Friends
DYEAR=2014
DGENRE=Blues Rock
TTITLE0=Dark Side Of Love
TTITLE1=Was
TTITLE2=Heart Of Blues
TTITLE3=Let Me Know
TTITLE4=Blue On Black
TTITLE5=Somehow Somewhere Someway
TTITLE6=Shes Out There Somewhere
TTITLE7=Crossroads
TTITLE8=All I Want Is You
TTITLE9=I Don't Need No Doctor
TTITLE10=Party Right Here
EXTD=
EXTT0=
EXTT1=
EXTT2=
EXTT3=
EXTT4=
EXTT5=
EXTT6=
EXTT7=
EXTT8=
EXTT9=
EXTT10=
PLAYORDER=
